<svg width="131" height="30" viewBox="0 0 131 30" fill="none" xmlns="http://www.w3.org/2000/svg">
<path d="M14.2 29.9C11.2667 29.9 8.74667 29.3133 6.64 28.14C4.56 26.94 2.96 25.26 1.84 23.1C0.72 20.9133 0.16 18.34 0.16 15.38C0.16 12.42 0.72 9.86 1.84 7.7C2.96 5.54 4.56 3.87333 6.64 2.7C8.74667 1.5 11.2667 0.899999 14.2 0.899999C16.0933 0.899999 17.88 1.19333 19.56 1.78C21.2667 2.36667 22.6667 3.20667 23.76 4.3L22.08 8.38C20.88 7.36667 19.6533 6.63333 18.4 6.18C17.1467 5.7 15.8 5.46 14.36 5.46C11.5067 5.46 9.33333 6.32667 7.84 8.06C6.34667 9.76667 5.6 12.2067 5.6 15.38C5.6 18.5533 6.34667 21.0067 7.84 22.74C9.33333 24.4733 11.5067 25.34 14.36 25.34C15.8 25.34 17.1467 25.1133 18.4 24.66C19.6533 24.18 20.88 23.4333 22.08 22.42L23.76 26.5C22.6667 27.5667 21.2667 28.4067 19.56 29.02C17.88 29.6067 16.0933 29.9 14.2 29.9ZM27.7484 29.5V1.3H32.7484V13.86H32.1884C32.7751 12.4467 33.6818 11.38 34.9084 10.66C36.1618 9.91333 37.5751 9.54 39.1484 9.54C40.7218 9.54 42.0151 9.83333 43.0284 10.42C44.0418 11.0067 44.8018 11.9 45.3084 13.1C45.8151 14.2733 46.0684 15.7667 46.0684 17.58V29.5H41.0684V17.82C41.0684 16.8067 40.9351 15.98 40.6684 15.34C40.4284 14.7 40.0418 14.2333 39.5084 13.94C39.0018 13.62 38.3484 13.46 37.5484 13.46C36.5884 13.46 35.7484 13.6733 35.0284 14.1C34.3084 14.5 33.7484 15.0867 33.3484 15.86C32.9484 16.6067 32.7484 17.4867 32.7484 18.5V29.5H27.7484ZM57.5869 29.9C56.1735 29.9 54.9069 29.6333 53.7869 29.1C52.6935 28.54 51.8269 27.7933 51.1869 26.86C50.5735 25.9267 50.2669 24.8733 50.2669 23.7C50.2669 22.26 50.6402 21.1267 51.3869 20.3C52.1335 19.4467 53.3469 18.8333 55.0269 18.46C56.7069 18.0867 58.9602 17.9 61.7869 17.9H63.7869V20.78H61.8269C60.5735 20.78 59.5202 20.8333 58.6669 20.94C57.8135 21.02 57.1202 21.1667 56.5869 21.38C56.0802 21.5667 55.7069 21.8333 55.4669 22.18C55.2535 22.5267 55.1469 22.9533 55.1469 23.46C55.1469 24.34 55.4535 25.06 56.0669 25.62C56.6802 26.18 57.5335 26.46 58.6269 26.46C59.5069 26.46 60.2802 26.26 60.9469 25.86C61.6402 25.4333 62.1869 24.86 62.5869 24.14C62.9869 23.42 63.1869 22.5933 63.1869 21.66V17.06C63.1869 15.7267 62.8935 14.7667 62.3069 14.18C61.7202 13.5933 60.7335 13.3 59.3469 13.3C58.2535 13.3 57.1335 13.4733 55.9869 13.82C54.8402 14.14 53.6802 14.6467 52.5069 15.34L51.0669 11.94C51.7602 11.46 52.5735 11.0467 53.5069 10.7C54.4669 10.3267 55.4669 10.0467 56.5069 9.86C57.5735 9.64667 58.5735 9.54 59.5069 9.54C61.4269 9.54 63.0002 9.83333 64.2269 10.42C65.4802 11.0067 66.4135 11.9 67.0269 13.1C67.6402 14.2733 67.9469 15.7933 67.9469 17.66V29.5H63.2669V25.34H63.5869C63.4002 26.2733 63.0269 27.0867 62.4669 27.78C61.9335 28.4467 61.2535 28.9667 60.4269 29.34C59.6002 29.7133 58.6535 29.9 57.5869 29.9ZM81.9819 29.9C79.3685 29.9 77.4219 29.2467 76.1419 27.94C74.8619 26.6333 74.2219 24.7267 74.2219 22.22V13.7H70.4619V9.94H74.2219V4.1H79.2219V9.94H85.1419V13.7H79.2219V21.94C79.2219 23.22 79.5019 24.18 80.0619 24.82C80.6219 25.46 81.5285 25.78 82.7819 25.78C83.1552 25.78 83.5419 25.74 83.9419 25.66C84.3419 25.5533 84.7552 25.4467 85.1819 25.34L85.9419 29.02C85.4619 29.2867 84.8485 29.5 84.1019 29.66C83.3819 29.82 82.6752 29.9 81.9819 29.9ZM96.2006 29.9C93.5873 29.9 91.6406 29.2467 90.3606 27.94C89.0806 26.6333 88.4406 24.7267 88.4406 22.22V13.7H84.6806V9.94H88.4406V4.1H93.4406V9.94H99.3606V13.7H93.4406V21.94C93.4406 23.22 93.7206 24.18 94.2806 24.82C94.8406 25.46 95.7473 25.78 97.0006 25.78C97.374 25.78 97.7606 25.74 98.1606 25.66C98.5606 25.5533 98.974 25.4467 99.4006 25.34L100.161 29.02C99.6806 29.2867 99.0673 29.5 98.3206 29.66C97.6006 29.82 96.894 29.9 96.2006 29.9ZM111.317 29.9C109.29 29.9 107.53 29.4867 106.037 28.66C104.544 27.8333 103.384 26.66 102.557 25.14C101.73 23.5933 101.317 21.78 101.317 19.7C101.317 17.62 101.73 15.82 102.557 14.3C103.384 12.78 104.544 11.6067 106.037 10.78C107.53 9.95333 109.29 9.54 111.317 9.54C113.344 9.54 115.104 9.95333 116.597 10.78C118.09 11.6067 119.25 12.78 120.077 14.3C120.904 15.82 121.317 17.62 121.317 19.7C121.317 21.78 120.904 23.5933 120.077 25.14C119.25 26.66 118.09 27.8333 116.597 28.66C115.104 29.4867 113.344 29.9 111.317 29.9ZM111.317 26.1C112.81 26.1 114.01 25.5667 114.917 24.5C115.824 23.4067 116.277 21.8067 116.277 19.7C116.277 17.5667 115.824 15.98 114.917 14.94C114.01 13.8733 112.81 13.34 111.317 13.34C109.824 13.34 108.624 13.8733 107.717 14.94C106.81 15.98 106.357 17.5667 106.357 19.7C106.357 21.8067 106.81 23.4067 107.717 24.5C108.624 25.5667 109.824 26.1 111.317 26.1Z" fill="#E7E0EC"/>
<path d="M131 26C131 27.933 129.433 29.5 127.501 29.5C125.568 29.5 124 27.933 124 26C124 24.067 125.568 22.5 127.501 22.5C129.433 22.5 131 24.067 131 26Z" fill="#E7E0EC"/>
</svg>
